# xmcd CD database file
#
# Track frame offsets:
#	150
#	14237
#	28582
#	41477
#	55875
#	75560
#	94925
#	113670
#	127230
#	143762
#
# Disc length: 2181 seconds
#
# Revision: 7
# Processed by: cddbd v1.5.2PL0 Copyright (c) Steve Scherf et al.
# Submitted via: CDex 1.60beta1
#
DISCID=8608830a
DTITLE=Emmylou Harris - Quarter Moon In A Ten Cent Town
DYEAR=1978
DGENRE=Country
TTITLE0=Easy From Now On
TTITLE1=Two More Bottles Of Wine
TTITLE2=To Daddy
TTITLE3=My Songbird
TTITLE4=Leaving Louisiana In The Broad Daylight
TTITLE5=Defying Gravity
TTITLE6=I Ain't Living Long Like This
TTITLE7=One Paper Kid (with Willie Nelson)
TTITLE8=Green Rolling Hills
TTITLE9=Harris, Emmylou - Burn That Candle
EXTD=(c)1978 Warner Bros USA\n7599-27345-2Produced by Brian Ahern for Happy Sack Productions\nEngineered by Brian Ahern, Bradley Hartman and Donivan Cowart\nRecorded and mixed in The Enactron Truck\n1978 YEAR: 1978
EXTT0=
EXTT1=Supporting vocal Dianne Brooks
EXTT2=
EXTT3=
EXTT4=Supporting vocal by Rick Danko
EXTT5=Supporting vocal by Nicolette Larson
EXTT6=Supporting vocal Dianne Brooks
EXTT7=
EXTT8=
EXTT9=Supporting vocal Dianne Brooks and Nicolette Larson
PLAYORDER=
